<svg width="40" height="24" viewBox="0 0 40 24" fill="none" xmlns="http://www.w3.org/2000/svg">
<path d="M20 11.4286C17.1438 11.4286 14.4046 12.5875 12.385 14.6504C10.3654 16.7133 9.23077 19.5112 9.23077 22.4286C9.23077 22.8453 9.39286 23.245 9.68137 23.5397C9.96989 23.8344 10.3612 24 10.7692 24H29.2308C29.6388 24 30.0301 23.8344 30.3186 23.5397C30.6071 23.245 30.7692 22.8453 30.7692 22.4286C30.7692 19.5112 29.6346 16.7133 27.615 14.6504C25.5954 12.5875 22.8562 11.4286 20 11.4286ZM12.4615 20.8571C12.8146 19.081 13.758 17.4841 15.1319 16.3371C16.5058 15.1901 18.2256 14.5636 20 14.5636C21.7744 14.5636 23.4942 15.1901 24.8681 16.3371C26.242 17.4841 27.1854 19.081 27.5385 20.8571H12.4615ZM18.4615 6.71429V3.57143C18.4615 3.15466 18.6236 2.75496 18.9121 2.46026C19.2007 2.16556 19.592 2 20 2C20.408 2 20.7993 2.16556 21.0879 2.46026C21.3764 2.75496 21.5385 3.15466 21.5385 3.57143V6.71429C21.5385 7.13105 21.3764 7.53075 21.0879 7.82545C20.7993 8.12015 20.408 8.28571 20 8.28571C19.592 8.28571 19.2007 8.12015 18.9121 7.82545C18.6236 7.53075 18.4615 7.13105 18.4615 6.71429ZM10.2154 12.4343C10.0716 12.5799 9.90114 12.6952 9.7137 12.7734C9.52626 12.8516 9.32555 12.8912 9.12308 12.89C8.92061 12.8912 8.71989 12.8516 8.53245 12.7734C8.34501 12.6952 8.17452 12.5799 8.03077 12.4343L5.86154 10.2029C5.6095 9.90224 5.4778 9.51555 5.49275 9.12006C5.50771 8.72457 5.66822 8.34941 5.94221 8.06954C6.2162 7.78968 6.58349 7.62573 6.97069 7.61045C7.35788 7.59518 7.73646 7.7297 8.03077 7.98714L10.2154 10.2029C10.3596 10.3489 10.474 10.5227 10.5521 10.7142C10.6302 10.9057 10.6705 11.1111 10.6705 11.3186C10.6705 11.526 10.6302 11.7314 10.5521 11.9229C10.474 12.1144 10.3596 12.2882 10.2154 12.4343ZM6.15385 22.4286C6.15385 22.8453 5.99176 23.245 5.70324 23.5397C5.41472 23.8344 5.02341 24 4.61538 24H1.53846C1.13044 24 0.739122 23.8344 0.450605 23.5397C0.162087 23.245 0 22.8453 0 22.4286C0 22.0118 0.162087 21.6121 0.450605 21.3174C0.739122 21.0227 1.13044 20.8571 1.53846 20.8571H4.61538C5.02341 20.8571 5.41472 21.0227 5.70324 21.3174C5.99176 21.6121 6.15385 22.0118 6.15385 22.4286ZM40 22.4286C40 22.8453 39.8379 23.245 39.5494 23.5397C39.2609 23.8344 38.8696 24 38.4615 24H35.3846C34.9766 24 34.5853 23.8344 34.2968 23.5397C34.0082 23.245 33.8462 22.8453 33.8462 22.4286C33.8462 22.0118 34.0082 21.6121 34.2968 21.3174C34.5853 21.0227 34.9766 20.8571 35.3846 20.8571H38.4615C38.8696 20.8571 39.2609 21.0227 39.5494 21.3174C39.8379 21.6121 40 22.0118 40 22.4286ZM34.1385 10.2029L31.9692 12.4343C31.8255 12.5799 31.655 12.6952 31.4676 12.7734C31.2801 12.8516 31.0794 12.8912 30.8769 12.89C30.6744 12.8912 30.4737 12.8516 30.2863 12.7734C30.0989 12.6952 29.9284 12.5799 29.7846 12.4343C29.6404 12.2882 29.526 12.1144 29.4479 11.9229C29.3698 11.7314 29.3295 11.526 29.3295 11.3186C29.3295 11.1111 29.3698 10.9057 29.4479 10.7142C29.526 10.5227 29.6404 10.3489 29.7846 10.2029L31.9692 7.98714C32.2635 7.7297 32.6421 7.59518 33.0293 7.61045C33.4165 7.62573 33.7838 7.78968 34.0578 8.06954C34.3318 8.34941 34.4923 8.72457 34.5072 9.12006C34.5222 9.51555 34.3905 9.90224 34.1385 10.2029Z" fill="white"/>
<path d="M18.8584 0.450273C19.0981 0.18111 19.4745 0.00600364 19.9001 0C19.9072 0 19.913 0.00100061 19.9188 0.00100061C20.3503 0.00100061 20.7326 0.176107 20.9793 0.449272L26.5295 5.19915C26.7704 5.40528 26.92 5.69145 26.92 6.00664C26.92 6.63702 26.3226 7.14933 25.5848 7.14933C25.2153 7.14933 24.8821 7.02126 24.6401 6.81413L21.2552 3.91737H18.5848L15.2 6.81413C14.9579 7.02126 14.6247 7.14933 14.2552 7.14933C13.5186 7.14933 12.92 6.63802 12.92 6.00664C12.92 5.69145 13.0685 5.40628 13.3105 5.19915L18.856 0.453275L18.8584 0.450273Z" fill="white"/>
</svg>
