<svg width="40" height="28" viewBox="0 0 40 28" fill="none" xmlns="http://www.w3.org/2000/svg">
<path d="M20 9.42857C17.1438 9.42857 14.4046 10.5875 12.385 12.6504C10.3654 14.7133 9.23077 17.5112 9.23077 20.4286C9.23077 20.8453 9.39286 21.245 9.68137 21.5397C9.96989 21.8344 10.3612 22 10.7692 22H29.2308C29.6388 22 30.0301 21.8344 30.3186 21.5397C30.6071 21.245 30.7692 20.8453 30.7692 20.4286C30.7692 17.5112 29.6346 14.7133 27.615 12.6504C25.5954 10.5875 22.8562 9.42857 20 9.42857ZM12.4615 18.8571C12.8146 17.081 13.758 15.4841 15.1319 14.3371C16.5058 13.1901 18.2256 12.5636 20 12.5636C21.7744 12.5636 23.4942 13.1901 24.8681 14.3371C26.242 15.4841 27.1854 17.081 27.5385 18.8571H12.4615ZM18.4615 4.71429V1.57143C18.4615 1.15466 18.6236 0.754961 18.9121 0.460261C19.2007 0.165561 19.592 0 20 0C20.408 0 20.7993 0.165561 21.0879 0.460261C21.3764 0.754961 21.5385 1.15466 21.5385 1.57143V4.71429C21.5385 5.13105 21.3764 5.53075 21.0879 5.82545C20.7993 6.12015 20.408 6.28571 20 6.28571C19.592 6.28571 19.2007 6.12015 18.9121 5.82545C18.6236 5.53075 18.4615 5.13105 18.4615 4.71429ZM10.2154 10.4343C10.0716 10.5799 9.90114 10.6952 9.7137 10.7734C9.52626 10.8516 9.32555 10.8912 9.12308 10.89C8.92061 10.8912 8.71989 10.8516 8.53245 10.7734C8.34501 10.6952 8.17452 10.5799 8.03077 10.4343L5.86154 8.20286C5.6095 7.90224 5.4778 7.51555 5.49275 7.12006C5.50771 6.72457 5.66822 6.34941 5.94221 6.06954C6.2162 5.78968 6.58349 5.62573 6.97069 5.61045C7.35788 5.59518 7.73646 5.7297 8.03077 5.98714L10.2154 8.20286C10.3596 8.34894 10.474 8.52274 10.5521 8.71424C10.6302 8.90573 10.6705 9.11112 10.6705 9.31857C10.6705 9.52602 10.6302 9.73141 10.5521 9.9229C10.474 10.1144 10.3596 10.2882 10.2154 10.4343ZM6.15385 20.4286C6.15385 20.8453 5.99176 21.245 5.70324 21.5397C5.41472 21.8344 5.02341 22 4.61538 22H1.53846C1.13044 22 0.739122 21.8344 0.450605 21.5397C0.162087 21.245 0 20.8453 0 20.4286C0 20.0118 0.162087 19.6121 0.450605 19.3174C0.739122 19.0227 1.13044 18.8571 1.53846 18.8571H4.61538C5.02341 18.8571 5.41472 19.0227 5.70324 19.3174C5.99176 19.6121 6.15385 20.0118 6.15385 20.4286ZM40 20.4286C40 20.8453 39.8379 21.245 39.5494 21.5397C39.2609 21.8344 38.8696 22 38.4615 22H35.3846C34.9766 22 34.5853 21.8344 34.2968 21.5397C34.0082 21.245 33.8462 20.8453 33.8462 20.4286C33.8462 20.0118 34.0082 19.6121 34.2968 19.3174C34.5853 19.0227 34.9766 18.8571 35.3846 18.8571H38.4615C38.8696 18.8571 39.2609 19.0227 39.5494 19.3174C39.8379 19.6121 40 20.0118 40 20.4286ZM34.1385 8.20286L31.9692 10.4343C31.8255 10.5799 31.655 10.6952 31.4676 10.7734C31.2801 10.8516 31.0794 10.8912 30.8769 10.89C30.6744 10.8912 30.4737 10.8516 30.2863 10.7734C30.0989 10.6952 29.9284 10.5799 29.7846 10.4343C29.6404 10.2882 29.526 10.1144 29.4479 9.9229C29.3698 9.73141 29.3295 9.52602 29.3295 9.31857C29.3295 9.11112 29.3698 8.90573 29.4479 8.71424C29.526 8.52274 29.6404 8.34894 29.7846 8.20286L31.9692 5.98714C32.2635 5.7297 32.6421 5.59518 33.0293 5.61045C33.4165 5.62573 33.7838 5.78968 34.0578 6.06954C34.3318 6.34941 34.4923 6.72457 34.5072 7.12006C34.5222 7.51555 34.3905 7.90224 34.1385 8.20286Z" fill="white"/>
<rect x="9" y="25" width="22" height="3" rx="1.5" fill="white"/>
</svg>
