<svg width="36" height="36" viewBox="0 0 36 36" fill="none" xmlns="http://www.w3.org/2000/svg">
<path d="M18 7.2C15.864 7.2 13.7759 7.83341 11.9998 9.02013C10.2238 10.2068 8.83953 11.8936 8.0221 13.867C7.20467 15.8405 6.9908 18.012 7.40752 20.107C7.82424 22.202 8.85284 24.1263 10.3632 25.6368C11.8737 27.1472 13.798 28.1758 15.893 28.5925C17.988 29.0092 20.1595 28.7953 22.133 27.9779C24.1064 27.1605 25.7932 25.7762 26.9799 24.0002C28.1666 22.2241 28.8 20.136 28.8 18C28.7969 15.1366 27.658 12.3914 25.6333 10.3667C23.6086 8.34199 20.8634 7.20313 18 7.2ZM18 25.2C16.576 25.2 15.1839 24.7777 13.9999 23.9866C12.8159 23.1954 11.893 22.0709 11.3481 20.7553C10.8031 19.4397 10.6605 17.992 10.9383 16.5954C11.2162 15.1987 11.9019 13.9158 12.9088 12.9088C13.9158 11.9019 15.1987 11.2162 16.5954 10.9383C17.992 10.6605 19.4397 10.8031 20.7553 11.3481C22.0709 11.893 23.1954 12.8159 23.9866 13.9999C24.7777 15.1839 25.2 16.576 25.2 18C25.1981 19.909 24.4389 21.7392 23.0891 23.0891C21.7392 24.4389 19.909 25.1981 18 25.2ZM18 5.4C18.2364 5.40013 18.4705 5.35367 18.689 5.26326C18.9074 5.17285 19.1059 5.04027 19.2731 4.87309C19.4403 4.70592 19.5728 4.50744 19.6633 4.28899C19.7537 4.07054 19.8001 3.83642 19.8 3.6V1.8C19.8 1.32261 19.6104 0.864773 19.2728 0.527208C18.9352 0.189642 18.4774 0 18 0C17.5226 0 17.0648 0.189642 16.7272 0.527208C16.3896 0.864773 16.2 1.32261 16.2 1.8V3.6C16.1999 3.83642 16.2463 4.07054 16.3367 4.28899C16.4272 4.50744 16.5597 4.70592 16.7269 4.87309C16.8941 5.04027 17.0926 5.17285 17.311 5.26326C17.5295 5.35367 17.7636 5.40013 18 5.4ZM18 30.6C17.7636 30.5999 17.5295 30.6463 17.311 30.7367C17.0926 30.8272 16.8941 30.9597 16.7269 31.1269C16.5597 31.2941 16.4272 31.4926 16.3367 31.711C16.2463 31.9295 16.1999 32.1636 16.2 32.4V34.2C16.2 34.6774 16.3896 35.1352 16.7272 35.4728C17.0648 35.8104 17.5226 36 18 36C18.4774 36 18.9352 35.8104 19.2728 35.4728C19.6104 35.1352 19.8 34.6774 19.8 34.2V32.4C19.8001 32.1636 19.7537 31.9295 19.6633 31.711C19.5728 31.4926 19.4403 31.2941 19.2731 31.1269C19.1059 30.9597 18.9074 30.8272 18.689 30.7367C18.4705 30.6463 18.2364 30.5999 18 30.6ZM5.4 18C5.40013 17.7636 5.35367 17.5295 5.26326 17.311C5.17285 17.0926 5.04027 16.8941 4.87309 16.7269C4.70592 16.5597 4.50744 16.4272 4.28899 16.3367C4.07054 16.2463 3.83642 16.1999 3.6 16.2H1.8C1.32261 16.2 0.864773 16.3896 0.527208 16.7272C0.189642 17.0648 0 17.5226 0 18C0 18.4774 0.189642 18.9352 0.527208 19.2728C0.864773 19.6104 1.32261 19.8 1.8 19.8H3.6C3.83642 19.8001 4.07054 19.7537 4.28899 19.6633C4.50744 19.5728 4.70592 19.4403 4.87309 19.2731C5.04027 19.1059 5.17285 18.9074 5.26326 18.689C5.35367 18.4705 5.40013 18.2364 5.4 18ZM34.2 16.2H32.4C31.9226 16.2 31.4648 16.3896 31.1272 16.7272C30.7896 17.0648 30.6 17.5226 30.6 18C30.6 18.4774 30.7896 18.9352 31.1272 19.2728C31.4648 19.6104 31.9226 19.8 32.4 19.8H34.2C34.6774 19.8 35.1352 19.6104 35.4728 19.2728C35.8104 18.9352 36 18.4774 36 18C36 17.5226 35.8104 17.0648 35.4728 16.7272C35.1352 16.3896 34.6774 16.2 34.2 16.2ZM6.54433 26.9104L5.27173 28.183C5.1046 28.3501 4.97203 28.5485 4.88158 28.7669C4.79113 28.9852 4.74458 29.2193 4.74458 29.4556C4.74458 29.692 4.79113 29.926 4.88158 30.1444C4.97203 30.3627 5.1046 30.5611 5.27173 30.7283C5.43886 30.8954 5.63727 31.028 5.85563 31.1184C6.07399 31.2089 6.30803 31.2554 6.54439 31.2554C6.78074 31.2554 7.01478 31.2089 7.23314 31.1184C7.4515 31.028 7.64991 30.8954 7.81704 30.7283L9.08964 29.4557C9.25677 29.2885 9.38934 29.0901 9.47979 28.8718C9.57024 28.6534 9.61679 28.4194 9.61679 28.183C9.61679 27.9467 9.57024 27.7126 9.47979 27.4943C9.38934 27.2759 9.25677 27.0775 9.08964 26.9104C8.92251 26.7432 8.7241 26.6107 8.50574 26.5202C8.28738 26.4298 8.05334 26.3832 7.81699 26.3832C7.58063 26.3832 7.34659 26.4298 7.12823 26.5202C6.90987 26.6107 6.71146 26.7432 6.54433 26.9104ZM28.183 9.61699C28.4194 9.61726 28.6536 9.5708 28.872 9.48029C29.0903 9.38978 29.2887 9.257 29.4556 9.08959L30.7282 7.81699C30.8953 7.64986 31.0279 7.45145 31.1184 7.23309C31.2088 7.01473 31.2554 6.78068 31.2554 6.54433C31.2554 6.30798 31.2088 6.07394 31.1184 5.85558C31.0279 5.63721 30.8953 5.43881 30.7282 5.27168C30.5611 5.10455 30.3627 4.97198 30.1443 4.88153C29.926 4.79108 29.6919 4.74453 29.4556 4.74453C29.2192 4.74453 28.9852 4.79108 28.7668 4.88153C28.5484 4.97198 28.35 5.10455 28.1829 5.27168L26.9103 6.54428C26.6586 6.79601 26.4873 7.11671 26.4179 7.46582C26.3484 7.81494 26.3841 8.1768 26.5203 8.50566C26.6565 8.83452 26.8871 9.11561 27.1831 9.3134C27.479 9.51119 27.827 9.6168 28.1829 9.61688L28.183 9.61699ZM29.4556 26.9104C29.1181 26.5728 28.6603 26.3832 28.183 26.3832C27.7056 26.3832 27.2478 26.5728 26.9103 26.9104C26.5728 27.2479 26.3832 27.7057 26.3832 28.183C26.3832 28.6604 26.5728 29.1181 26.9103 29.4557L28.1829 30.7283C28.5204 31.0658 28.9782 31.2554 29.4556 31.2554C29.9329 31.2554 30.3907 31.0658 30.7282 30.7283C31.0657 30.3907 31.2554 29.9329 31.2554 29.4556C31.2554 28.9783 31.0657 28.5205 30.7282 28.183L29.4556 26.9104ZM6.54433 9.08964C6.88186 9.42717 7.33965 9.61679 7.81699 9.61679C8.29432 9.61679 8.75211 9.42717 9.08964 9.08964C9.42717 8.75211 9.61679 8.29432 9.61679 7.81699C9.61679 7.33965 9.42717 6.88186 9.08964 6.54433L7.81704 5.27173C7.47952 4.9342 7.02173 4.74457 6.5444 4.74455C6.06706 4.74454 5.60927 4.93416 5.27173 5.27168C4.9342 5.6092 4.74457 6.06698 4.74455 6.54432C4.74454 7.02166 4.93416 7.47945 5.27168 7.81699L6.54433 9.08964Z" fill="white"/>
</svg>
