<svg width="24" height="24" viewBox="0 0 24 24" fill="none" xmlns="http://www.w3.org/2000/svg">
<path d="M12.9474 0C11.3684 0 10.5182 1.19593 10.7763 2.31287C10.92 2.91186 11.3228 3.27132 11.8224 3.40806C11.7772 3.73869 11.7585 4.19642 11.7336 4.7697C9.47961 7.5317 6.27435 9.48295 3.6908 11.2818C2.41642 12.3732 1.33638 13.6419 1.04606 15.2876C0.830867 16.5076 1.0887 17.8365 1.88488 19.264C1.54412 19.2639 1.18149 19.264 0.848696 19.264C0.386431 19.3124 -0.00247342 19.7465 1.1846e-05 20.2112V23.0528C6.23723e-05 23.5487 0.451354 23.9999 0.94738 24H23.0526C23.5487 23.9999 24 23.5487 24 23.0528V20.2112C24 19.7152 23.5487 19.264 23.0526 19.264H21.898C22.8182 17.868 23.1856 16.5628 23.0428 15.337C22.8474 13.66 21.7588 12.3673 20.4671 11.2719C17.8979 9.49855 14.8096 7.57599 12.2763 4.77957C12.2544 4.23812 12.2359 3.79269 12.1974 3.4673C12.7734 3.49891 13.4113 3.28023 13.8947 2.81605C12.7224 2.95651 12.1945 2.90596 11.8125 2.31287C11.5849 1.75888 11.785 0.663253 12.9474 0ZM12 7.2068C14.0748 9.51127 17.2583 11.0387 19.2434 12.7223C20.3717 13.6792 21.0551 14.5966 21.1678 15.5639C21.2735 16.4718 20.8833 17.6497 19.5 19.264H4.16448C3.0198 17.6921 2.74778 16.5397 2.9112 15.6133C3.08733 14.6147 3.80256 13.6831 4.92435 12.7223C6.89518 11.0344 9.96106 9.49394 12 7.2068ZM1.89475 21.1584H22.1053V22.1056H1.89475V21.1584Z" fill="white"/>
</svg>
