<svg width="24" height="24" viewBox="0 0 24 24" fill="none" xmlns="http://www.w3.org/2000/svg">
<path d="M12 0C5.38312 0 0 5.38312 0 12C0 18.6169 5.38312 24 12 24C18.6169 24 24 18.6169 24 12C24 5.38312 18.6169 0 12 0ZM12 22.383C6.27463 22.383 1.61704 17.7251 1.61704 12C1.61704 6.27487 6.27463 1.61701 12 1.61701C17.7254 1.61701 22.383 6.27486 22.383 12C22.383 17.7251 17.7254 22.383 12 22.383Z" fill="white"/>
<path d="M14.687 11.03C14.2791 10.3052 13.6934 9.71959 12.9734 9.3116L5.72064 5.21719C5.42785 5.0492 5.04863 5.42839 5.21665 5.72121L9.31103 12.9692C9.71905 13.694 10.3046 14.2796 11.0294 14.6876L18.2775 18.782C18.5703 18.95 18.9494 18.5708 18.7815 18.278L14.687 11.03ZM12.9063 12.9068C12.407 13.406 11.5958 13.406 11.0918 12.9068C10.5927 12.4028 10.5927 11.5964 11.0918 11.0924C11.5958 10.5932 12.407 10.5932 12.9063 11.0924C13.4103 11.5964 13.4103 12.4028 12.9063 12.9068Z" fill="white"/>
<path d="M12.0002 4.96071C12.3218 4.96071 12.5858 4.69672 12.5858 4.3751V2.7863C12.5858 2.46471 12.3218 2.20071 12.0002 2.20071C11.6785 2.20071 11.4146 2.46471 11.4146 2.7863V4.3751C11.4145 4.69672 11.6785 4.96071 12.0002 4.96071Z" fill="white"/>
<path d="M12.0002 19.039C11.6785 19.039 11.4146 19.303 11.4146 19.6246V21.2134C11.4146 21.535 11.6785 21.799 12.0002 21.799C12.3218 21.799 12.5858 21.535 12.5858 21.2134V19.6246C12.5858 19.303 12.3218 19.039 12.0002 19.039Z" fill="white"/>
<path d="M21.2136 11.4143L19.6248 11.4143C19.3032 11.4143 19.0392 11.6783 19.0392 11.9999C19.0392 12.3215 19.3032 12.5855 19.6248 12.5855L21.2136 12.5855C21.5352 12.5855 21.7992 12.3215 21.7992 11.9999C21.7992 11.6783 21.5352 11.4143 21.2136 11.4143Z" fill="white"/>
<path d="M4.37534 11.4143H2.78654C2.46492 11.4143 2.20093 11.6783 2.20093 11.9999C2.20093 12.3215 2.46492 12.5855 2.78654 12.5855H4.37534C4.69693 12.5855 4.96093 12.3215 4.96093 11.9999C4.96093 11.6783 4.69693 11.4143 4.37534 11.4143Z" fill="white"/>
</svg>
