<svg width="24" height="24" viewBox="0 0 24 24" fill="none" xmlns="http://www.w3.org/2000/svg">
<path d="M1 5.00016H4.1425C4.36039 5.85795 4.85797 6.61864 5.55658 7.16198C6.25519 7.70532 7.11497 8.00031 8 8.00031C8.88503 8.00031 9.74481 7.70532 10.4434 7.16198C11.142 6.61864 11.6396 5.85795 11.8575 5.00016H23C23.2652 5.00016 23.5196 4.8948 23.7071 4.70726C23.8946 4.51973 24 4.26537 24 4.00016C24 3.73494 23.8946 3.48059 23.7071 3.29305C23.5196 3.10551 23.2652 3.00016 23 3.00016H11.8575C11.6396 2.14237 11.142 1.38167 10.4434 0.83833C9.74481 0.294989 8.88503 0 8 0C7.11497 0 6.25519 0.294989 5.55658 0.83833C4.85797 1.38167 4.36039 2.14237 4.1425 3.00016H1C0.734784 3.00016 0.48043 3.10551 0.292893 3.29305C0.105357 3.48059 0 3.73494 0 4.00016C0 4.26537 0.105357 4.51973 0.292893 4.70726C0.48043 4.8948 0.734784 5.00016 1 5.00016ZM8 2.00016C8.39556 2.00016 8.78224 2.11745 9.11114 2.33722C9.44004 2.55698 9.69638 2.86934 9.84776 3.23479C9.99913 3.60024 10.0387 4.00238 9.96157 4.39034C9.8844 4.7783 9.69392 5.13467 9.41421 5.41437C9.13451 5.69408 8.77814 5.88456 8.39018 5.96173C8.00222 6.0389 7.60009 5.99929 7.23463 5.84792C6.86918 5.69654 6.55682 5.4402 6.33706 5.1113C6.1173 4.7824 6 4.39572 6 4.00016C6 3.46972 6.21071 2.96102 6.58579 2.58594C6.96086 2.21087 7.46957 2.00016 8 2.00016Z" fill="white"/>
<path d="M1 13.0002H12.1425C12.3604 13.8579 12.858 14.6186 13.5566 15.162C14.2552 15.7053 15.115 16.0003 16 16.0003C16.885 16.0003 17.7448 15.7053 18.4434 15.162C19.142 14.6186 19.6396 13.8579 19.8575 13.0002H23C23.2652 13.0002 23.5196 12.8948 23.7071 12.7073C23.8946 12.5197 24 12.2654 24 12.0002C24 11.7349 23.8946 11.4806 23.7071 11.293C23.5196 11.1055 23.2652 11.0002 23 11.0002H19.8575C19.6396 10.1424 19.142 9.38167 18.4434 8.83833C17.7448 8.29499 16.885 8 16 8C15.115 8 14.2552 8.29499 13.5566 8.83833C12.858 9.38167 12.3604 10.1424 12.1425 11.0002H1C0.734784 11.0002 0.48043 11.1055 0.292893 11.293C0.105357 11.4806 0 11.7349 0 12.0002C0 12.2654 0.105357 12.5197 0.292893 12.7073C0.48043 12.8948 0.734784 13.0002 1 13.0002ZM16 10.0002C16.3956 10.0002 16.7822 10.1175 17.1111 10.3372C17.44 10.557 17.6964 10.8693 17.8478 11.2348C17.9991 11.6002 18.0387 12.0024 17.9616 12.3903C17.8844 12.7783 17.6939 13.1347 17.4142 13.4144C17.1345 13.6941 16.7781 13.8846 16.3902 13.9617C16.0022 14.0389 15.6001 13.9993 15.2346 13.8479C14.8692 13.6965 14.5568 13.4402 14.3371 13.1113C14.1173 12.7824 14 12.3957 14 12.0002C14 11.4697 14.2107 10.961 14.5858 10.5859C14.9609 10.2109 15.4696 10.0002 16 10.0002Z" fill="white"/>
<path d="M1 21.0002H4.1425C4.36039 21.8579 4.85797 22.6186 5.55658 23.162C6.25519 23.7053 7.11497 24.0003 8 24.0003C8.88503 24.0003 9.74481 23.7053 10.4434 23.162C11.142 22.6186 11.6396 21.8579 11.8575 21.0002H23C23.2652 21.0002 23.5196 20.8948 23.7071 20.7073C23.8946 20.5197 24 20.2654 24 20.0002C24 19.7349 23.8946 19.4806 23.7071 19.293C23.5196 19.1055 23.2652 19.0002 23 19.0002H11.8575C11.6396 18.1424 11.142 17.3817 10.4434 16.8383C9.74481 16.295 8.88503 16 8 16C7.11497 16 6.25519 16.295 5.55658 16.8383C4.85797 17.3817 4.36039 18.1424 4.1425 19.0002H1C0.734784 19.0002 0.48043 19.1055 0.292893 19.293C0.105357 19.4806 0 19.7349 0 20.0002C0 20.2654 0.105357 20.5197 0.292893 20.7073C0.48043 20.8948 0.734784 21.0002 1 21.0002ZM8 18.0002C8.39556 18.0002 8.78224 18.1175 9.11114 18.3372C9.44004 18.557 9.69638 18.8693 9.84776 19.2348C9.99913 19.6002 10.0387 20.0024 9.96157 20.3903C9.8844 20.7783 9.69392 21.1347 9.41421 21.4144C9.13451 21.6941 8.77814 21.8846 8.39018 21.9617C8.00222 22.0389 7.60009 21.9993 7.23463 21.8479C6.86918 21.6965 6.55682 21.4402 6.33706 21.1113C6.1173 20.7824 6 20.3957 6 20.0002C6 19.4697 6.21071 18.961 6.58579 18.5859C6.96086 18.2109 7.46957 18.0002 8 18.0002Z" fill="white"/>
</svg>
